<svg width="77" height="77" viewBox="0 0 77 77" fill="none" xmlns="http://www.w3.org/2000/svg">
<path d="M17.8865 6.65398C18.295 6.85038 18.6397 7.15815 18.8809 7.54185C19.1222 7.92555 19.2501 8.36958 19.2501 8.82281C19.2501 11.4857 20.2511 13.0193 21.5055 14.8866L21.5986 15.0213C22.6637 16.6062 24.0626 18.682 24.0626 21.6561C24.0626 24.6912 22.5322 27.367 20.1997 28.9551C20.8125 29.4684 21.3547 30.1005 21.8232 30.8576C23.3503 33.3281 24.0626 37.1043 24.0626 42.5264C24.0626 48.019 23.3247 54.6154 22.1215 59.8834C21.5248 62.5014 20.7837 64.9173 19.9014 66.73C19.4618 67.6316 18.926 68.5107 18.2651 69.2004C17.6042 69.8774 16.5872 70.5993 15.2397 70.5993C13.8922 70.5993 12.8751 69.8774 12.2174 69.2004C11.5475 68.4665 10.9956 67.6331 10.5812 66.73C9.69567 64.9141 8.95454 62.5014 8.35779 59.8802C7.10637 54.1782 6.45581 48.3608 6.41675 42.5231C6.41675 37.1011 7.129 33.3281 8.65617 30.8576C9.09185 30.1406 9.63998 29.4982 10.2796 28.9551C9.08857 28.1465 8.11376 27.0584 7.44038 25.7861C6.767 24.5137 6.41555 23.0957 6.41675 21.6561C6.41675 20.4755 6.41675 18.4446 7.64554 15.8234C8.84867 13.2567 11.1362 10.3083 15.3391 6.94273C15.6934 6.65938 16.1205 6.48193 16.5712 6.43084C17.0219 6.37975 17.4779 6.4571 17.8865 6.65398ZM11.2293 21.6529V21.6561C11.2293 22.7198 11.6518 23.7398 12.4039 24.4919C13.156 25.244 14.176 25.6666 15.2397 25.6666C16.3033 25.6666 17.3234 25.244 18.0755 24.4919C18.8276 23.7398 19.2501 22.7198 19.2501 21.6561C19.2501 20.2477 18.6565 19.2724 17.5112 17.5687L17.4727 17.511C16.738 16.4201 15.8685 15.1272 15.2525 13.4685C13.5104 15.2395 12.5479 16.7089 12.0057 17.8639C11.2293 19.5194 11.2293 20.6969 11.2293 21.6497V21.6529ZM12.75 33.3858C11.9543 34.6756 11.2293 37.3192 11.2293 42.5264C11.2293 47.6629 11.9287 53.8999 13.0484 58.8119C13.613 61.2823 14.2547 63.2875 14.906 64.6222C15.0247 64.8692 15.137 65.0745 15.2397 65.2478C15.3423 65.0745 15.4546 64.8692 15.5733 64.6222C16.2246 63.2875 16.8663 61.2791 17.431 58.8119C18.5539 53.9031 19.2501 47.6661 19.2501 42.5264C19.2501 37.3192 18.525 34.6756 17.7293 33.3858C17.4894 32.9516 17.1267 32.5978 16.6866 32.3688C16.231 32.1703 15.7362 32.0782 15.2397 32.0993C14.598 32.0993 14.1392 32.1987 13.7927 32.3688C13.3527 32.5978 12.99 32.9516 12.75 33.3858Z" fill="#7140FF"/>
<path d="M32.0833 47.8587C30.3836 47.5736 28.7302 47.0599 27.1681 46.3316C27.262 44.5119 27.2888 42.6894 27.2484 40.8678C28.6953 41.8399 30.3284 42.5554 32.0833 42.9532V33.6875C32.0833 32.4112 32.5903 31.1871 33.4929 30.2846C34.3954 29.3821 35.6195 28.875 36.8958 28.875H49.7291C49.729 26.1823 48.9758 23.5432 47.5546 21.256C46.1334 18.9688 44.1009 17.1247 41.6867 15.9319C39.2725 14.7391 36.5728 14.2453 33.8927 14.5063C31.2126 14.7672 28.6589 15.7724 26.5201 17.4084C25.8784 15.6342 24.964 14.2771 24.3288 13.3339L24.2004 13.1414C27.083 11.1094 30.4684 9.90828 33.987 9.66927C37.5057 9.43025 41.0224 10.1625 44.1533 11.786C47.2841 13.4095 49.9088 15.862 51.7408 18.8756C53.5728 21.8892 54.5417 25.3483 54.5416 28.875H65.7708C67.0472 28.875 68.2712 29.3821 69.1738 30.2846C70.0763 31.1871 70.5833 32.4112 70.5833 33.6875V62.5625C70.5833 63.8389 70.0763 65.063 69.1738 65.9655C68.2712 66.868 67.0472 67.375 65.7708 67.375H36.8958C35.6195 67.375 34.3954 66.868 33.4929 65.9655C32.5903 65.063 32.0833 63.8389 32.0833 62.5625V47.8587ZM36.8958 48.0609V62.5625H65.7708V33.6875H53.9321C52.9325 37.5536 50.7561 41.0135 47.704 43.5886C44.6519 46.1636 40.875 47.7264 36.8958 48.0609ZM48.9078 33.6875H36.8958V43.2259C39.5914 42.9237 42.1476 41.8688 44.2718 40.182C46.3961 38.4952 48.0027 36.2446 48.9078 33.6875Z" fill="#7140FF"/>
</svg>
