<svg width="78" height="78" viewBox="0 0 78 78" fill="none" xmlns="http://www.w3.org/2000/svg">
<path d="M63.375 58.512H14.625C13.3325 58.5107 12.0932 57.9967 11.1793 57.0827C10.2653 56.1687 9.75129 54.9295 9.75 53.637V19.512C9.75129 18.2194 10.2653 16.9802 11.1793 16.0662C12.0932 15.1523 13.3325 14.6383 14.625 14.637H63.375C64.6675 14.6383 65.9068 15.1523 66.8207 16.0662C67.7347 16.9802 68.2487 18.2194 68.25 19.512V53.637C68.2481 54.9293 67.7338 56.1682 66.82 57.082C65.9062 57.9958 64.6673 58.51 63.375 58.512ZM14.625 19.512V53.637H63.375V19.512H14.625Z" fill="#7140FF"/>
<path d="M4.875 63.387H73.125V68.262H4.875V63.387Z" fill="#7140FF"/>
</svg>
