<svg width="83" height="83" viewBox="0 0 83 83" fill="none" xmlns="http://www.w3.org/2000/svg">
<path d="M28.5452 27.6771C31.8894 27.6771 34.5972 30.3885 34.5972 33.7292V66.5834C34.5972 68.1885 33.9596 69.7279 32.8246 70.8628C31.6896 71.9978 30.1503 72.6355 28.5452 72.6355H12.9688C11.3637 72.6355 9.82435 71.9978 8.68936 70.8628C7.55438 69.7279 6.91675 68.1885 6.91675 66.5834V33.7292C6.91675 30.3885 9.62808 27.6771 12.9688 27.6771H28.5452ZM28.5452 32.8646H12.9688C12.7395 32.8646 12.5196 32.9557 12.3575 33.1179C12.1953 33.28 12.1042 33.4999 12.1042 33.7292V66.5834C12.1042 67.0606 12.4916 67.448 12.9688 67.448H28.5452C28.7745 67.448 28.9944 67.3569 29.1565 67.1947C29.3187 67.0326 29.4097 66.8127 29.4097 66.5834V33.7292C29.4097 33.4999 29.3187 33.28 29.1565 33.1179C28.9944 32.9557 28.7745 32.8646 28.5452 32.8646ZM21.6216 58.7917C22.2787 58.792 22.9113 59.0416 23.3915 59.4902C23.8717 59.9389 24.1637 60.5531 24.2085 61.2087C24.2533 61.8643 24.0476 62.5125 23.6328 63.0223C23.2181 63.5321 22.6254 63.8655 21.9743 63.955L21.6216 63.9793H19.8924C19.2353 63.979 18.6027 63.7294 18.1225 63.2808C17.6423 62.8321 17.3503 62.2179 17.3055 61.5623C17.2607 60.9067 17.4664 60.2585 17.8812 59.7487C18.2959 59.2389 18.8886 58.9055 19.5397 58.816L19.8924 58.7917H21.6216ZM73.4862 57.0626C74.1434 57.0628 74.776 57.3124 75.2562 57.7611C75.7364 58.2097 76.0283 58.8239 76.0731 59.4795C76.1179 60.1352 75.9122 60.7834 75.4975 61.2932C75.0828 61.8029 74.49 62.1363 73.839 62.2259L73.4897 62.2501H38.0417V57.0626H73.4897H73.4862ZM63.1147 17.2917C66.4554 17.2917 69.1668 20.0031 69.1668 23.3438V49.2813C69.1668 50.8864 68.5291 52.4258 67.3941 53.5608C66.2591 54.6958 64.7198 55.3334 63.1147 55.3334H38.0417V50.1459H63.1147C63.344 50.1459 63.5639 50.0548 63.726 49.8927C63.8882 49.7305 63.9793 49.5106 63.9793 49.2813V23.3438C63.9793 23.1145 63.8882 22.8946 63.726 22.7325C63.5639 22.5703 63.344 22.4792 63.1147 22.4792H19.8855C19.6562 22.4792 19.4363 22.5703 19.2741 22.7325C19.112 22.8946 19.0209 23.1145 19.0209 23.3438L19.0175 24.2084H13.8334V23.3438C13.8334 20.0031 16.5447 17.2917 19.8855 17.2917H63.1147Z" fill="#7140FF"/>
</svg>
